<?xml version="1.0" encoding="UTF-8" standalone="no"?>
<!-- Generator: Adobe Illustrator 14.0.0, SVG Export Plug-In . SVG Version: 6.00 Build 43363)  -->

<svg
   xmlns:dc="http://purl.org/dc/elements/1.1/"
   xmlns:cc="http://creativecommons.org/ns#"
   xmlns:rdf="http://www.w3.org/1999/02/22-rdf-syntax-ns#"
   xmlns:svg="http://www.w3.org/2000/svg"
   xmlns="http://www.w3.org/2000/svg"
   xmlns:sodipodi="http://sodipodi.sourceforge.net/DTD/sodipodi-0.dtd"
   xmlns:inkscape="http://www.inkscape.org/namespaces/inkscape"
   version="1.0"
   id="Layer_1"
   x="0px"
   y="0px"
   width="100px"
   height="83.648px"
   viewBox="0 0 100 83.648"
   enable-background="new 0 0 100 83.648"
   xml:space="preserve"
   inkscape:version="0.48.5 r10040"
   sodipodi:docname="NavigateIcon.svg"><metadata
   id="metadata3165"><rdf:RDF><cc:Work
       rdf:about=""><dc:format>image/svg+xml</dc:format><dc:type
         rdf:resource="http://purl.org/dc/dcmitype/StillImage" /></cc:Work></rdf:RDF></metadata><defs
   id="defs3163" /><sodipodi:namedview
   pagecolor="#ffffff"
   bordercolor="#666666"
   borderopacity="1"
   objecttolerance="10"
   gridtolerance="10"
   guidetolerance="10"
   inkscape:pageopacity="0"
   inkscape:pageshadow="2"
   inkscape:window-width="1440"
   inkscape:window-height="937"
   id="namedview3161"
   showgrid="false"
   inkscape:zoom="2.8213465"
   inkscape:cx="9.2393208"
   inkscape:cy="41.824001"
   inkscape:window-x="-8"
   inkscape:window-y="-8"
   inkscape:window-maximized="1"
   inkscape:current-layer="layer5" />



<g
     inkscape:groupmode="layer"
     id="layer4"
     inkscape:label="Circle"><ellipse
     style="fill:#4a8bf5"
     sodipodi:ry="128"
     sodipodi:rx="128"
     sodipodi:cy="128"
     sodipodi:cx="128"
     cy="128"
     cx="128"
     ry="128"
     rx="128"
     id="ellipse3096"
     transform="matrix(0.38111333,0,0,0.32157836,1.0164108,0.66196847)" /></g><g
   inkscape:groupmode="layer"
   id="layer5"
   inkscape:label="Car"><path
     style="fill:#fefefe"
     inkscape:connector-curvature="0"
     id="path1"
     height="138"
     width="138"
     d="m 36.166903,55.306173 c 0.935481,0.0748 1.84522,0.176097 2.807058,0.221571 -0.07712,0.750521 -0.147599,1.418782 -0.710177,1.618478 -0.62805,0.21953 -1.458138,-0.08797 -2.265381,0.03598 0.03964,-0.593465 0.09144,-1.175565 0.135643,-1.765253 -0.0037,-0.05302 -0.0064,-0.104132 0.03286,-0.110779 z m 28.006933,-0.241375 c 0.02269,0.650282 0.07577,1.26653 0.135821,1.8751 -0.830038,-0.142914 -1.76367,0.228059 -2.368008,-0.07286 -0.489317,-0.244297 -0.544623,-0.850916 -0.608216,-1.581639 0.976357,-0.04171 1.886711,-0.153334 2.840403,-0.220602 z M 30.018538,50.715711 c 1.019802,2.200051 2.753543,3.625749 5.308527,4.154969 -0.05028,0.685426 -0.121459,1.36131 -0.169331,1.985182 -0.04571,0.608699 -0.02481,1.449336 -0.472779,1.6548 -0.427074,0.196014 -1.445973,0.03686 -1.96144,0.03686 -0.492125,0 -1.484049,0.163803 -1.927238,-0.03686 -0.641709,-0.28871 -0.518289,-2.688575 -0.575753,-3.639982 -0.04351,-0.727048 -0.064,-1.389797 -0.100562,-2.022106 -0.04265,-0.725229 -0.08922,-1.413403 -0.101426,-2.132863 z m 40.237215,-0.03636 0.03308,0.03599 c -0.104244,2.038212 -0.201146,4.002712 -0.303656,6.177389 -0.03285,0.691975 -0.107722,1.44748 -0.506945,1.617909 -0.456465,0.194057 -1.414718,0.03687 -1.928884,0.03687 -0.51437,0 -1.492357,0.154361 -1.92621,-0.03687 -0.423354,-0.185552 -0.462748,-1.053737 -0.507814,-1.617909 -0.05317,-0.657985 -0.06684,-1.322625 -0.134344,-2.022238 2.528983,-0.55951 4.318704,-1.921855 5.274758,-4.191142 z m -6.12771,-10.918613 c -0.170872,-0.0012 -0.338263,0.0014 -0.500101,0.008 -1.47208,0.05874 -2.397322,0.102298 -3.51661,0.514954 -0.788832,0.289721 -2.048207,0.926813 -2.097023,2.021138 -0.03089,0.692931 0.410567,1.702048 0.947107,2.17069 0.536946,0.470459 1.448545,0.657015 2.434568,0.660723 2.297287,0.01045 4.54275,-0.705217 5.916669,-1.985079 0.343835,-0.319964 1.025613,-1.046993 0.913277,-1.838437 -0.06533,-0.462826 -0.427085,-0.67679 -0.710198,-0.845316 -0.824914,-0.492888 -2.191575,-0.697999 -3.387689,-0.706702 z m -27.166546,-0.0046 c -0.239806,-0.0017 -0.481059,0.0029 -0.722475,0.0126 -0.936675,0.03693 -1.704811,0.05685 -2.536283,0.294375 -0.634303,0.180956 -1.509327,0.529203 -1.622699,1.212755 -0.129543,0.780974 0.499096,1.512803 0.878935,1.875297 1.364972,1.301673 3.749722,2.034298 6.018257,1.985079 0.589435,-0.01236 1.275089,-0.09087 1.690804,-0.25744 0.794982,-0.316258 1.7905,-1.639597 1.589833,-2.794553 -0.08485,-0.485642 -0.472083,-0.891761 -0.913072,-1.213614 -1.096863,-0.79856 -2.704655,-1.103332 -4.3833,-1.114494 z M 50.819348,25.455243 c -1.215395,-0.0022 -2.428223,0.02308 -3.625011,0.08343 -3.315273,0.167602 -6.326502,0.21118 -9.298013,0.551974 -1.5015,2.472712 -2.425939,5.574746 -3.348191,8.676978 10.318692,0.104188 20.857692,0.104188 31.17549,0 -0.726111,-2.501996 -1.289398,-4.531665 -2.298754,-6.765641 -0.17894,-0.395824 -0.744634,-1.768454 -1.082447,-1.911337 -0.176062,-0.07482 -0.558073,-0.04544 -0.878967,-0.07383 -3.328633,-0.300325 -6.997923,-0.554875 -10.644107,-0.56156 z m 0.278161,-2.189589 c 2.100685,0.01056 4.293516,0.23855 6.207273,0.434721 2.315544,0.238464 4.728113,0.513986 6.05215,2.02302 0.44714,0.508267 0.772314,1.205029 1.11621,1.837363 1.048075,1.935029 1.835573,4.017603 2.60354,6.32461 0.130991,-1.911286 4.10123,-2.032481 4.394636,-0.110801 0.100575,0.652289 -0.598519,1.213628 -1.0811,1.397203 -0.525911,0.200805 -1.278365,0.240501 -1.826011,0.110801 -0.391567,-0.0927 -0.88291,-0.547962 -1.082243,-0.220435 -0.08532,0.140026 0.226817,0.429673 0.33848,0.551815 0.492144,0.535819 0.959008,1.018566 1.419861,1.580851 0.588966,0.718594 1.307925,1.573363 1.556063,2.463245 0.280779,1.013914 0.03633,2.69604 -0.06812,3.823515 -0.114007,1.230568 -0.195647,2.471752 -0.270545,3.640887 -0.231356,3.590649 -2.016916,5.805758 -4.800659,6.617995 -0.964227,0.282087 -2.039514,0.306734 -3.247134,0.405173 -1.943963,0.15711 -3.962817,0.278307 -6.105976,0.342648 -0.04834,0.0086 -0.09141,0.03127 -0.142559,0.03127 l -11.848927,0 c -0.04112,0 -0.07703,-0.01897 -0.116885,-0.02552 -2.188828,-0.06535 -4.361408,-0.182701 -6.366755,-0.348392 -1.183884,-0.09844 -2.268736,-0.144751 -3.246254,-0.441162 -2.761332,-0.838699 -4.517652,-2.908113 -4.734895,-6.692804 -0.06595,-1.175752 -0.202636,-2.399776 -0.303651,-3.63987 -0.09032,-1.11897 -0.306255,-2.605234 -0.03375,-3.676802 0.24577,-0.964692 0.943382,-1.803393 1.521282,-2.500177 0.607294,-0.732628 1.289879,-1.372631 1.860598,-2.095878 -0.348251,-0.33894 -0.644265,0.02938 -1.08308,0.146788 -1.194128,0.321783 -3.129417,-0.129703 -2.974656,-1.507058 0.201123,-1.792999 4.173972,-1.845998 4.395583,0.146714 0.753766,-2.230305 1.529979,-4.441629 2.603506,-6.397472 0.344364,-0.629492 0.720895,-1.328122 1.149512,-1.802435 1.272682,-1.409548 3.363753,-1.700201 5.646463,-1.948256 1.141222,-0.123982 2.287459,-0.226263 3.448675,-0.293403 1.183883,-0.06913 2.376257,-0.08706 3.584346,-0.147633 0.470397,-0.0238 0.950264,-0.03294 1.43504,-0.03052 z" /></g></svg>