<?xml version="1.0" encoding="UTF-8" standalone="no"?>
<!-- Generator: Adobe Illustrator 14.0.0, SVG Export Plug-In . SVG Version: 6.00 Build 43363)  -->
<svg id="Layer_1" xmlns:rdf="http://www.w3.org/1999/02/22-rdf-syntax-ns#" xmlns="http://www.w3.org/2000/svg" enable-background="new 0 0 100 83.648" xml:space="preserve" height="83.648px" viewBox="0 0 100 83.648" width="100px" version="1.0" y="0px" x="0px" xmlns:cc="http://creativecommons.org/ns#" xmlns:dc="http://purl.org/dc/elements/1.1/"><metadata id="metadata3165"><rdf:RDF><cc:Work rdf:about=""><dc:format>image/svg+xml</dc:format><dc:type rdf:resource="http://purl.org/dc/dcmitype/StillImage"/><dc:title/></cc:Work></rdf:RDF></metadata>
<g id="layer4"><ellipse id="ellipse3096" transform="matrix(0.38111333,0,0,0.32157836,1.0164108,0.66196847)" cx="128" rx="128" ry="128" cy="128" fill="#4a8bf5"/></g><g id="layer5"><path id="path1" d="m36.167,55.306c0.93548,0.0748,1.8452,0.1761,2.8071,0.22157-0.07712,0.75052-0.1476,1.4188-0.71018,1.6185-0.62805,0.21953-1.4581-0.08797-2.2654,0.03598,0.03964-0.59346,0.09144-1.1756,0.13564-1.7653-0.0037-0.05302-0.0064-0.10413,0.03286-0.11078zm28.007-0.24138c0.02269,0.65028,0.07577,1.2665,0.13582,1.8751-0.83004-0.14291-1.7637,0.22806-2.368-0.07286-0.48932-0.2443-0.54462-0.85092-0.60822-1.5816,0.97636-0.04171,1.8867-0.15333,2.8404-0.2206zm-34.155-4.349c1.0198,2.2001,2.7535,3.6257,5.3085,4.155-0.05028,0.68543-0.12146,1.3613-0.16933,1.9852-0.04571,0.6087-0.02481,1.4493-0.47278,1.6548-0.42707,0.19601-1.446,0.03686-1.9614,0.03686-0.49212,0-1.484,0.1638-1.9272-0.03686-0.64171-0.28871-0.51829-2.6886-0.57575-3.64-0.04351-0.72705-0.064-1.3898-0.10056-2.0221-0.04265-0.72523-0.08922-1.4134-0.10143-2.1329zm40.237-0.03636,0.03308,0.03599c-0.10424,2.0382-0.20115,4.0027-0.30366,6.1774-0.03285,0.69198-0.10772,1.4475-0.50694,1.6179-0.45646,0.19406-1.4147,0.03687-1.9289,0.03687-0.51437,0-1.4924,0.15436-1.9262-0.03687-0.42335-0.18555-0.46275-1.0537-0.50781-1.6179-0.05317-0.65798-0.06684-1.3226-0.13434-2.0222,2.529-0.55951,4.3187-1.9219,5.2748-4.1911zm-6.1277-10.919c-0.17087-0.0012-0.33826,0.0014-0.5001,0.008-1.4721,0.05874-2.3973,0.1023-3.5166,0.51495-0.78883,0.28972-2.0482,0.92681-2.097,2.0211-0.03089,0.69293,0.41057,1.702,0.94711,2.1707,0.53695,0.47046,1.4485,0.65702,2.4346,0.66072,2.2973,0.01045,4.5428-0.70522,5.9167-1.9851,0.34384-0.31996,1.0256-1.047,0.91328-1.8384-0.06533-0.46283-0.42708-0.67679-0.7102-0.84532-0.82491-0.49289-2.1916-0.698-3.3877-0.7067zm-27.167-0.0046c-0.23981-0.0017-0.48106,0.0029-0.72248,0.0126-0.93668,0.03693-1.7048,0.05685-2.5363,0.29438-0.6343,0.18096-1.5093,0.5292-1.6227,1.2128-0.12954,0.78097,0.4991,1.5128,0.87894,1.8753,1.365,1.3017,3.7497,2.0343,6.0183,1.9851,0.58944-0.01236,1.2751-0.09087,1.6908-0.25744,0.79498-0.31626,1.7905-1.6396,1.5898-2.7946-0.08485-0.48564-0.47208-0.89176-0.91307-1.2136-1.0969-0.79856-2.7047-1.1033-4.3833-1.1145zm13.858-14.301c-1.2154-0.0022-2.4282,0.02308-3.625,0.08343-3.3153,0.1676-6.3265,0.21118-9.298,0.55197-1.5015,2.4727-2.4259,5.5747-3.3482,8.677,10.319,0.10419,20.858,0.10419,31.175,0-0.72611-2.502-1.2894-4.5317-2.2988-6.7656-0.17894-0.39582-0.74463-1.7685-1.0824-1.9113-0.17606-0.07482-0.55807-0.04544-0.87897-0.07383-3.3286-0.30032-6.9979-0.55488-10.644-0.56156zm0.27816-2.1896c2.1007,0.01056,4.2935,0.23855,6.2073,0.43472,2.3155,0.23846,4.7281,0.51399,6.0522,2.023,0.44714,0.50827,0.77231,1.205,1.1162,1.8374,1.0481,1.935,1.8356,4.0176,2.6035,6.3246,0.13099-1.9113,4.1012-2.0325,4.3946-0.1108,0.10058,0.65229-0.59852,1.2136-1.0811,1.3972-0.52591,0.2008-1.2784,0.2405-1.826,0.1108-0.39157-0.0927-0.88291-0.54796-1.0822-0.22044-0.08532,0.14003,0.22682,0.42967,0.33848,0.55182,0.49214,0.53582,0.95901,1.0186,1.4199,1.5809,0.58897,0.71859,1.3079,1.5734,1.5561,2.4632,0.28078,1.0139,0.03633,2.696-0.06812,3.8235-0.11401,1.2306-0.19565,2.4718-0.27054,3.6409-0.23136,3.5906-2.0169,5.8058-4.8007,6.618-0.96423,0.28209-2.0395,0.30673-3.2471,0.40517-1.944,0.15711-3.9628,0.27831-6.106,0.34265-0.04834,0.0086-0.09141,0.03127-0.14256,0.03127h-11.849c-0.04112,0-0.07703-0.01897-0.11688-0.02552-2.1888-0.06535-4.3614-0.1827-6.3668-0.34839-1.1839-0.09844-2.2687-0.14475-3.2463-0.44116-2.7613-0.8387-4.5177-2.9081-4.7349-6.6928-0.06595-1.1758-0.20264-2.3998-0.30365-3.6399-0.09032-1.119-0.30626-2.6052-0.03375-3.6768,0.24577-0.96469,0.94338-1.8034,1.5213-2.5002,0.60729-0.73263,1.2899-1.3726,1.8606-2.0959-0.34825-0.33894-0.64426,0.02938-1.0831,0.14679-1.1941,0.32178-3.1294-0.1297-2.9747-1.5071,0.20112-1.793,4.174-1.846,4.3956,0.14671,0.75377-2.2303,1.53-4.4416,2.6035-6.3975,0.34436-0.62949,0.7209-1.3281,1.1495-1.8024,1.2727-1.4095,3.3638-1.7002,5.6465-1.9483,1.1412-0.12398,2.2875-0.22626,3.4487-0.2934,1.1839-0.06913,2.3763-0.08706,3.5843-0.14763,0.4704-0.0238,0.95026-0.03294,1.435-0.03052z" height="138" width="138" fill="#fefefe"/></g></svg>
