<?xml version="1.0" encoding="UTF-8" standalone="no"?>
<svg id="Layer_1" xmlns:rdf="http://www.w3.org/1999/02/22-rdf-syntax-ns#" xmlns="http://www.w3.org/2000/svg" enable-background="new 0 0 100 83.648" xml:space="preserve" height="100px" viewBox="5.0 -10.0 100.0 135.0" width="100px" version="1.1" y="0px" x="0px" xmlns:cc="http://creativecommons.org/ns#" xmlns:dc="http://purl.org/dc/elements/1.1/"><metadata id="metadata3025"><rdf:RDF><cc:Work rdf:about=""><dc:format>image/svg+xml</dc:format><dc:type rdf:resource="http://purl.org/dc/dcmitype/StillImage"/><dc:title/></cc:Work></rdf:RDF></metadata>
<path id="path3015" d="M94.077,80.619c-5.098,12.222-17.051,14.364-20.957,14.364-1.147,0-19.01,0.947-44.688-23.41-20.665-19.602-23.19-40.681-23.41-44.686-0.214-3.901,0.903-13.687,14.365-20.958,1.668-0.901,4.975-1.3,5.829-0.446,0.379,0.379,11.678,18.972,11.975,19.588,0.297,0.615,0.446,1.221,0.446,1.815,0,0.849-0.605,1.911-1.816,3.185-1.21,1.274-2.526,2.442-3.949,3.503-1.423,1.062-2.739,2.187-3.95,3.376-1.21,1.188-1.815,2.166-1.815,2.93,0.082,1.983,1.707,9.086,14.086,19.963,12.381,10.88,18.345,13.945,18.918,14.157,0.574,0.212,1.051,0.317,1.433,0.317,0.765,0,1.742-0.604,2.931-1.814,1.188-1.211,5.185-6.689,6.459-7.9,1.274-1.209,2.336-1.814,3.186-1.814,0.594,0,1.199,0.148,1.814,0.445,0.616,0.297,19.233,11.191,19.589,11.555,0.966,0.99,0.284,4.08-0.446,5.83" fill="#4a8bf5"/>
</svg>
