<?xml version="1.0" encoding="UTF-8" standalone="no"?>
<svg id="Layer_1" xmlns:rdf="http://www.w3.org/1999/02/22-rdf-syntax-ns#" style="enable-background:new 0 0 100 100;" xmlns="http://www.w3.org/2000/svg" xml:space="preserve" height="100px" viewBox="5.0 -10.0 100.0 135.0" width="100px" version="1.1" y="0px" x="0px" xmlns:cc="http://creativecommons.org/ns#" xmlns:dc="http://purl.org/dc/elements/1.1/"><metadata id="metadata3051"><rdf:RDF><cc:Work rdf:about=""><dc:format>image/svg+xml</dc:format><dc:type rdf:resource="http://purl.org/dc/dcmitype/StillImage"/><dc:title/></cc:Work></rdf:RDF></metadata>
<path id="path3041" fill="#4a8bf5" d="M85.192,61.911c-4.697-3.059-10.447-3.056-15.076-0.586l-26.94-17.553,26.018-15.659c4.5361,2.6206,10.278,2.8357,15.087-0.05419,7.078-4.266,9.403-13.543,5.187-20.697-4.23-7.1491-13.431-9.4856-20.508-5.2362-4.805,2.8997-7.356,8.1016-7.223,13.379l-24.922,14.993c-0.189-0.138-0.34-0.309-0.537-0.437-6.928-4.512-16.202-2.496-20.68,4.499-4.4662,6.9915-2.4682,16.352,4.4629,20.866,4.7005,3.059,10.452,3.0557,15.076,0.59275l27.087,17.641c-0.31401,5.2691,2.05,10.561,6.7456,13.62,6.9376,4.5088,16.208,2.4974,20.681-4.4957,4.471-6.9997,2.4714-16.356-4.458-20.873z"/>
<text id="text3043" font-size="5.0" font-weight="bold" y="117.5" x="0.0" font-family="Helvetica Neue, Helvetica, Arial-Unicode, Arial, Sans-serif" fill="#000000">Created by Mike Rowe</text>
<text id="text3045" font-size="5.0" font-weight="bold" y="122.5" x="0.0" font-family="Helvetica Neue, Helvetica, Arial-Unicode, Arial, Sans-serif" fill="#000000">from the Noun Project</text>
</svg>
