<svg xmlns="http://www.w3.org/2000/svg" xmlns:xlink="http://www.w3.org/1999/xlink" version="1.1" id="Layer_1" x="0px" y="0px" width="100px" height="100px" viewBox="5.0 -10.0 100.0 135.0" style="enable-background:new 0 0 100 100;" xml:space="preserve">
<path fill="#4a8bf5" d="M70.017,60.395c-2.887-1.863-6.421-1.861-9.266-0.357l-16.558-10.69l15.991-9.537c2.788,1.596,6.317,1.727,9.273-0.033  c4.35-2.598,5.779-8.248,3.188-12.605c-2.6-4.354-8.255-5.777-12.605-3.189c-2.953,1.766-4.521,4.934-4.439,8.148l-15.318,9.131  c-0.116-0.084-0.209-0.188-0.33-0.266c-4.258-2.748-9.958-1.52-12.71,2.74c-2.745,4.258-1.517,9.959,2.743,12.708  c2.889,1.863,6.424,1.861,9.266,0.361l16.648,10.744c-0.193,3.209,1.26,6.432,4.146,8.295c4.264,2.746,9.962,1.521,12.711-2.738  C75.505,68.844,74.276,63.146,70.017,60.395z"/>
<text x="0.0" y="117.5" font-size="5.0" font-weight="bold" font-family="Helvetica Neue, Helvetica, Arial-Unicode, Arial, Sans-serif" fill="#000000">Created by Mike Rowe</text><text x="0.0" y="122.5" font-size="5.0" font-weight="bold" font-family="Helvetica Neue, Helvetica, Arial-Unicode, Arial, Sans-serif" fill="#000000">from the Noun Project</text></svg>