<?xml version="1.0" encoding="UTF-8" standalone="no"?>
<svg id="Layer_1" xmlns:rdf="http://www.w3.org/1999/02/22-rdf-syntax-ns#" style="enable-background:new 0 0 100 100;" xmlns="http://www.w3.org/2000/svg" xml:space="preserve" height="100px" viewBox="5.0 -10.0 100.0 135.0" width="100px" version="1.1" y="0px" x="0px" xmlns:cc="http://creativecommons.org/ns#" xmlns:dc="http://purl.org/dc/elements/1.1/"><metadata id="metadata3051"><rdf:RDF><cc:Work rdf:about=""><dc:format>image/svg+xml</dc:format><dc:type rdf:resource="http://purl.org/dc/dcmitype/StillImage"/><dc:title/></cc:Work></rdf:RDF></metadata>
<path id="path3041" d="M70.017,60.395c-2.887-1.863-6.421-1.861-9.266-0.357l-16.558-10.69,15.991-9.537c2.788,1.596,6.317,1.727,9.273-0.033,4.35-2.598,5.779-8.248,3.188-12.605-2.6-4.354-8.255-5.777-12.605-3.189-2.953,1.766-4.521,4.934-4.439,8.148l-15.318,9.131c-0.116-0.084-0.209-0.188-0.33-0.266-4.258-2.748-9.958-1.52-12.71,2.74-2.745,4.258-1.517,9.959,2.743,12.708,2.889,1.863,6.424,1.861,9.266,0.361l16.648,10.744c-0.193,3.209,1.26,6.432,4.146,8.295,4.264,2.746,9.962,1.521,12.711-2.738,2.748-4.263,1.519-9.961-2.74-12.712z" fill="#4a8bf5"/>
<text id="text3043" font-size="5.0" font-family="Helvetica Neue, Helvetica, Arial-Unicode, Arial, Sans-serif" y="117.5" x="0.0" font-weight="bold" fill="#000000">Created by Mike Rowe</text>
<text id="text3045" font-size="5.0" font-family="Helvetica Neue, Helvetica, Arial-Unicode, Arial, Sans-serif" y="122.5" x="0.0" font-weight="bold" fill="#000000">from the Noun Project</text>
</svg>
