<svg xmlns="http://www.w3.org/2000/svg" xmlns:xlink="http://www.w3.org/1999/xlink" version="1.1" x="0px" y="0px" width="100px" height="100px" viewBox="5.0 -10.0 100.0 135.0" enable-background="new 0 0 100 100" xml:space="preserve">
<g id="Your_Icon">
	<path fill="#000000" d="M44.638,31.158c0,0-10.236,8.739-11.139,18.118c-0.902,9.38-0.473,20.159,0.429,22.143   c0.902,1.983,4.656,3.238,4.656,3.238L36.521,99h11.003V79.672l4.329-1.444V99h11.545l-1.444-23.374c0,0,6.314-3.208,7.035-5.013   c0.722-1.804-0.552-17.295-1.172-22.535c-1.443-12.169-10.191-16.75-10.191-16.75v30.844l-12.988,0.361V31.158z"/>
	<path fill="#000000" d="M55.102,18.614c0,1.4-2.014,2.535-4.103,2.535s-3.46-1.134-3.46-2.535c0-1.4,2.014-0.419,4.104-0.419   C53.73,18.194,55.102,17.214,55.102,18.614z"/>
	<path fill="#000000" d="M66.118,10.449l-1.306-1.957l-0.917,0.115C62.146,3.295,57.63-0.212,51.88-0.212   c-7.33,0-13.816,5.516-14.779,12.168l-0.479,0.06l-0.783,2.22l1.144-0.143c0.196,7.801,5.508,13.421,12.793,13.421   c7.945,0,14.915-6.478,14.915-13.863c0-1.037-0.093-2.035-0.266-2.991L66.118,10.449z M51.88,2.788c4.148,0,7.458,2.44,8.949,6.202   l-0.474,0.059v0l-2.291,0.287l-17.847,2.23C41.384,6.76,46.418,2.788,51.88,2.788z M61.69,13.652   c0,5.685-5.679,10.863-11.915,10.863c-5.664,0-9.778-4.536-9.809-10.794l0.568-0.071c0.474,2.153,2.193,3.663,4.436,3.382   c2.245-0.28,4.175-2.246,4.194-4.461l3.021-0.377c0.473,2.153,2.194,3.662,4.438,3.381c2.242-0.28,4.174-2.246,4.191-4.461   l0.612-0.077C61.594,11.868,61.69,12.739,61.69,13.652z"/>
</g>
</svg>