<?xml version="1.0" encoding="UTF-8" standalone="no"?>
<!-- Created with Inkscape (http://www.inkscape.org/) -->

<svg
   xmlns:dc="http://purl.org/dc/elements/1.1/"
   xmlns:cc="http://creativecommons.org/ns#"
   xmlns:rdf="http://www.w3.org/1999/02/22-rdf-syntax-ns#"
   xmlns:svg="http://www.w3.org/2000/svg"
   xmlns="http://www.w3.org/2000/svg"
   version="1.1"
   width="100%"
   height="100%"
   id="svg3092">
  <metadata
     id="metadata3105">
    <rdf:RDF>
      <cc:Work
         rdf:about="">
        <dc:format>image/svg+xml</dc:format>
        <dc:type
           rdf:resource="http://purl.org/dc/dcmitype/StillImage" />
        <dc:title></dc:title>
      </cc:Work>
    </rdf:RDF>
  </metadata>
  <defs
     id="defs3103" />
  <g
     transform="translate(50,50)"
     id="g3094">
    <ellipse
       cx="128"
       cy="128"
       rx="128"
       ry="128"
       id="ellipse3096"
       style="fill:#4a8bf5" />
    <g
       transform="translate(59,75.414969)"
       id="g3098">
      <path
         d="m 10.978992,44.071 c 1.399029,0.102886 2.759561,0.242214 4.198007,0.304763 -0.11532,1.032311 -0.220737,1.951477 -1.062081,2.226155 -0.939261,0.301952 -2.180673,-0.12101 -3.38792,0.04949 0.05927,-0.816285 0.136744,-1.61694 0.202856,-2.428032 -0.0056,-0.07292 -0.0095,-0.143231 0.04914,-0.152378 z m 41.884884,-0.332001 c 0.03391,0.894436 0.113311,1.742062 0.203121,2.579124 C 51.82566,46.121552 50.429401,46.63181 49.5256,46.217911 48.793819,45.88189 48.711108,45.047509 48.616,44.042428 c 1.460163,-0.05737 2.821614,-0.210907 4.247876,-0.303429 z M 1.7839997,37.757 c 1.5251318,3.026085 4.1179737,4.987076 7.939,5.714997 -0.075192,0.942776 -0.1816454,1.872429 -0.2532377,2.730541 -0.068361,0.837242 -0.03711,1.993504 -0.7070494,2.276112 -0.6386976,0.269607 -2.1624799,0.0507 -2.9333706,0.0507 -0.735981,0 -2.2194221,0.225307 -2.88222,-0.0507 C 1.9874349,48.08154 2.1720098,44.780621 2.0860714,43.471997 2.0210058,42.47197 1.9903649,41.560387 1.9356762,40.69067 1.8718922,39.693146 1.8022492,38.74659 1.7839997,37.757 z m 60.1754953,-0.05 0.0495,0.0495 c -0.15591,2.803482 -0.300819,5.505573 -0.454128,8.496757 -0.0491,0.951786 -0.16111,1.990952 -0.758148,2.225369 -0.682644,0.266918 -2.115735,0.05071 -2.884682,0.05071 -0.769249,0 -2.231842,0.212314 -2.88068,-0.05071 -0.633141,-0.255219 -0.692047,-1.449372 -0.759449,-2.225369 -0.07951,-0.905033 -0.100006,-1.819218 -0.200913,-2.781509 3.782139,-0.769585 6.458706,-2.643437 7.888497,-5.764752 z M 52.795394,22.688874 c -0.255543,-0.0017 -0.505882,0.0021 -0.747909,0.01104 -2.201523,0.0808 -3.58524,0.1407 -5.25916,0.7083 -1.17971,0.3985 -3.063129,1.274797 -3.136135,2.779997 -0.0462,0.953098 0.61401,2.341099 1.416416,2.985699 0.803013,0.647098 2.166325,0.903698 3.640942,0.908798 3.435635,0.0144 6.79377,-0.969998 8.848492,-2.730398 0.51421,-0.440098 1.533817,-1.440098 1.365818,-2.528698 -0.0977,-0.636599 -0.63871,-0.930899 -1.062115,-1.162699 -1.233673,-0.67795 -3.277542,-0.96007 -5.066349,-0.97204 z m -40.628071,-0.0063 c -0.358635,-0.0022 -0.719433,0.0039 -1.080474,0.01734 -1.4008156,0.0508 -2.5495774,0.0782 -3.79306,0.4049 -0.9486108,0.248899 -2.257225,0.7279 -2.4267759,1.668098 -0.1937327,1.0742 0.746407,2.0808 1.3144636,2.579398 2.0413418,1.790399 5.6077783,2.798097 9.0004153,2.730398 0.881509,-0.017 1.906919,-0.125 2.528627,-0.354099 1.188911,-0.435 2.677727,-2.2552 2.377624,-3.843798 -0.126901,-0.667999 -0.706007,-1.226599 -1.365514,-1.669296 -1.640379,-1.098389 -4.044861,-1.51759 -6.555306,-1.532944 z M 32.891994,3.0122163 C 31.074348,3.0091517 29.260541,3.043968 27.470723,3.1269603 22.51267,3.3574901 18.009322,3.4174302 13.565374,3.8861797 11.319851,7.2872973 9.9373361,11.554024 8.5580913,15.821021 c 15.4317947,0.143299 31.1930637,0.143299 46.6235257,0 C 54.095702,12.379623 53.253295,9.5878949 51.743781,6.5151472 51.476176,5.9707079 50.630168,4.0827093 50.124961,3.8861797 49.861659,3.7832699 49.290355,3.8236799 48.810451,3.7846203 43.83242,3.3715353 38.344928,3.021411 32.891994,3.0122163 z M 33.30799,5.216279e-4 C 36.449603,0.01501457 39.729022,0.32863782 42.591079,0.59846265 c 3.46294,0.32799941 7.07098,0.70696925 9.051102,2.78258725 0.668708,0.6990998 1.15501,1.657469 1.669315,2.527219 1.567417,2.6615568 2.745129,5.5260551 3.893642,8.6992531 0.195904,-2.628899 6.133465,-2.795598 6.572266,-0.1524 0.150406,0.897199 -0.895107,1.669299 -1.616814,1.921799 -0.786506,0.2762 -1.911819,0.330799 -2.730831,0.152399 -0.585602,-0.1275 -1.320412,-0.7537 -1.618515,-0.3032 -0.127601,0.192601 0.339203,0.591 0.506203,0.759001 0.736008,0.736998 1.434215,1.400997 2.123424,2.174397 0.88081,0.988399 1.956025,2.164099 2.327126,3.388098 0.419907,1.394599 0.0543,3.708297 -0.101902,5.259096 -0.170502,1.692598 -0.292599,3.399797 -0.404606,5.007898 -0.346001,4.938797 -3.016331,7.985592 -7.179474,9.102791 -1.442016,0.388 -3.050133,0.421902 -4.856151,0.5573 -2.907231,0.216099 -5.926465,0.382801 -9.1316,0.471299 -0.0723,0.0117 -0.1367,0.043 -0.213199,0.043 l -17.720288,0 c -0.0615,0 -0.115202,-0.0261 -0.174803,-0.0351 -3.273433,-0.0899 -6.522567,-0.251297 -9.5216,-0.479199 -1.77052,-0.135398 -3.392937,-0.1991 -4.854832,-0.6068 C 4.4799181,40.714303 1.8533105,37.867905 1.5284176,32.662209 1.4297761,31.045008 1.2253737,29.361411 1.0743024,27.655711 0.9392308,26.116612 0.61629331,24.072314 1.0238326,22.598414 c 0.367553,-1.326897 1.4108439,-2.480497 2.2751039,-3.438896 0.9082188,-1.0077 1.9290399,-1.887999 2.7825594,-2.882797 -0.5208163,-0.4662 -0.963511,0.0404 -1.6197667,0.2019 -1.7858401,0.4426 -4.68010072,-0.1784 -4.44865232,-2.0729 C 0.3138611,11.939523 6.2553273,11.866623 6.5867511,14.607522 7.7140228,11.539824 8.8748647,8.4982362 10.480342,5.8080487 10.995347,4.9422088 11.558454,3.9812696 12.19946,3.3288701 14.10278,1.3900918 17.230014,0.99031205 20.643849,0.64912165 22.350568,0.47858942 24.064786,0.33790354 25.801406,0.245557 27.571923,0.15046469 29.355142,0.12580673 31.161861,0.04249331 31.86535,0.00976361 32.582999,-0.00282207 33.30799,5.216279e-4 z"
         transform="scale(2.1632808,2.1632808)"
         id="path1"
         style="fill:#fefefe" />
    </g>
  </g>
</svg>
