<svg xmlns="http://www.w3.org/2000/svg" xmlns:xlink="http://www.w3.org/1999/xlink" version="1.1" id="Your_Icon" x="0px" y="0px" width="100px" height="100px" viewBox="5.0 -10.0 100.0 135.0" enable-background="new 0 0 100 100" xml:space="preserve">
<g fill="#000000">
	<path d="M50.057,59.192c4.766,0,6.085-1.584,6.376-2.069l-2.574-1.541c0.063-0.105,0.107-0.149,0.108-0.15  c-0.009,0.009-0.81,0.761-3.911,0.761c-3.103,0-3.903-0.753-3.911-0.761c0,0,0.045,0.044,0.108,0.149l-2.573,1.543  C43.972,57.609,45.292,59.192,50.057,59.192z"/>
	<path d="M46.349,49.593l3.953,0.886l3.954-0.886c0.809-0.181,1.316-0.983,1.136-1.792c-0.182-0.808-0.983-1.317-1.792-1.136  l-3.297,0.739l-3.297-0.739c-0.806-0.176-1.61,0.327-1.792,1.136C45.032,48.609,45.541,49.412,46.349,49.593z"/>
	<path d="M94.895,81.788l-25.506-2.979c9.062-4.086,18.244-5.782,18.428-5.815c0.706-0.126,1.225-0.734,1.236-1.451  c0.244-14.634-13.744-22.584-16.332-23.928c1.271-7.686,2.271-15.664,2.635-18.114c2.197-14.858-10.553-14.858-10.553-14.858  S64.504,4.515,50.293,4.917C19.618,4.917,25.232,29.5,25.232,29.5c0.437,2.426,1.403,10.338,2.639,17.993  c-1.782,0.893-16.821,8.882-16.568,24.05c0.012,0.717,0.53,1.325,1.236,1.451c0.183,0.033,9.354,1.728,18.411,5.808l-26.09,3.048  v3.021l30.938-3.615c5.857,3.338,10.913,7.812,12.42,13.64h3.919c1.506-5.823,6.554-10.296,12.405-13.632l30.353,3.547V81.788z   M38.405,23.392c-0.153-3.487,0.642-6.323,0.693-6.517c0.192-0.722,0.885-1.194,1.629-1.104c0.743,0.09,1.306,0.712,1.32,1.46  c0.011,0.504,0.628,13.965,9.912,13.965c1.881,0,4.717-0.455,6.658-1.45c0.895-0.487,1.605-0.974,2.111-1.458l-3.254-5.334  c2.363,0.53,3.559,0.411,4.707,0.438c0.006,0,0.014,0,0.018,0c5.277,0,6.635,5.028,6.447,10.903  c-0.115,3.582-4.225,3.533-4.557,11.482c-0.125,3.012,0.459,3.557-1.594,7.662c-0.141,0.281-0.422,0.531-0.281,0.812  c0.113,0.224,0.613,0.223,0.613,0.223h3.521c-1.052,4.433-4.691,14.64-15.935,14.64h-0.223c-11.207,0-14.868-10.205-15.93-14.64  h3.517c0,0,0.5,0.001,0.612-0.223c0.141-0.281-0.141-0.531-0.281-0.812c-2.052-4.104-1.468-4.649-1.594-7.662  c-0.332-7.949-4.441-7.901-4.555-11.482C31.771,28.419,33.128,23.392,38.405,23.392z M35.239,77.495  c-8.417-4.35-17.581-6.518-20.918-7.21c0.534-11.102,10.882-17.842,14.075-19.663c0.447,2.562,0.922,5.003,1.415,7.087  c0.685,2.898,1.132,4.437,4.277,4.457c0.562,1.025,1.215,2.057,1.979,3.045C36.104,66.919,36.147,72.705,35.239,77.495z   M50.177,91.396c-2.281-5.195-6.922-9.259-12.189-12.379c0.793-3.583,1.029-7.76,1.083-10.704c2.736,2.234,6.35,3.8,11.121,3.8  h0.223c4.771,0,8.385-1.565,11.121-3.8c0.053,2.908,0.283,7.02,1.054,10.572C57.229,82.023,52.49,86.128,50.177,91.396z   M64.538,65.21c0.764-0.988,1.417-2.019,1.979-3.044c3.128-0.026,3.577-1.563,4.261-4.457c0.484-2.05,0.957-4.442,1.405-6.958  c3.424,1.994,13.33,8.677,13.852,19.534c-3.308,0.686-12.337,2.822-20.69,7.094C64.46,72.615,64.502,66.906,64.538,65.21z"/>
</g>
</svg>