<!-- Created with Inkscape (http://www.inkscape.org/) -->
<svg xmlns:rdf="http://www.w3.org/1999/02/22-rdf-syntax-ns#" xmlns="http://www.w3.org/2000/svg" height="41" width="84.038" version="1.1" xmlns:cc="http://creativecommons.org/ns#" xmlns:dc="http://purl.org/dc/elements/1.1/">
 <g fill="#4d4d4d" transform="translate(15.590512,-3.50014)">
  <path d="m21.049,19.431c1.1685,0,2.2912,0.196,3.3412,0.55139,0.81417-1.805,1.7656-3.9168,2.8798-6.396l-0.71079-1.9546-2.443-0.0447v-2.0424h9.196c0.80448,1.1006-0.32577,1.0958-4.3982,1.9988l0.71078,1.9994h18.169c-1.2243-4.2741-0.53233-3.9629-6.0413-3.9532v-2.0877c7.5838,0.0738,6.2689-0.78078,10.33,12.283,0.6214-0.11577,1.2616-0.17931,1.917-0.17931,5.7611,0,10.448,4.6874,10.448,10.449,0,5.7611-4.6869,10.448-10.448,10.448-5.7616,0-10.449-4.6869-10.449-10.448,0-4.311,2.625-8.0205,6.3604-9.6144-0.22723-0.71509-0.4717-1.4786-0.73393-2.2944-15.285,16.122-9.5509,13.509-17.776,13.836-0.0393,0-0.077-0.00054-0.11631-0.001-0.97409,4.7596-5.1941,8.3506-10.236,8.3506-5.7617,0-10.449-4.6869-10.449-10.448s4.6869-10.449,10.449-10.449zm24.946,10.621c0,4.4133,3.5905,8.0038,8.0038,8.0038s8.0044-3.5905,8.0044-8.0038-3.5905-8.0038-8.0038-8.0038c-0.39793,0-0.78886,0.0302-1.1712,0.0867,2.5497,8.0405,2.2438,7.1251,2.2594,7.803,0.0124,0.57186-0.44909,1.0252-1.0296,1.0646-1.0403-0.10554-0.80609,0.0668-3.4058-8.2176-2.7462,1.2686-4.6572,4.0477-4.6572,7.2672zm-10.317-0.49808,12.642-13.776-17.78-0.0318,5.1381,13.808zm-4.1818,0.28916,1.9439-0.006-5.0439-13.24-1.9568,4.3358c3.0187,1.8254,5.0433,5.1349,5.0568,8.9101zm-6.0724-6.6604-3.0176,6.6862,6.6458-0.0188c-0.0108-2.7871-1.4533-5.242-3.6282-6.6674zm-4.3751,14.701c3.6907,0,6.8052-2.5125,7.726-5.9167-8.3307,0.008-9.0738,0.43509-9.1901-1.0102,0.0113-0.42109,0.168-0.70971,3.7941-8.734-0.73717-0.22508-1.5196-0.34732-2.3294-0.34732-4.4133,0-8.0039,3.5905-8.0039,8.0044s3.59,8.0038,8.0033,8.0038z"/>
  <rect style="enable-background:accumulate;color:#000000;" fill-rule="nonzero" transform="scale(-1,1)" height="1.6" width="26.167" y="17.424" x="-14.699"/>
  <rect style="enable-background:accumulate;color:#000000;" fill-rule="nonzero" transform="scale(-1,1)" height="1.6" width="18.471" y="26.484" x="-7.0026"/>
  <rect style="enable-background:accumulate;color:#000000;" fill-rule="nonzero" height="1.6" width="20.468" y="35.544" x="-11.468"/>
 </g>
</svg>
