<!-- Created with Inkscape (http://www.inkscape.org/) -->
<svg xmlns:rdf="http://www.w3.org/1999/02/22-rdf-syntax-ns#" xmlns="http://www.w3.org/2000/svg" height="61" width="100" version="1.1" xmlns:cc="http://creativecommons.org/ns#" xmlns:dc="http://purl.org/dc/elements/1.1/">
 <g transform="translate(0,-991.36218)">
  <g fill-rule="nonzero" fill="#292929" transform="matrix(1.035316,0,0,1.035316,-1.7546564,-35.795606)">
   <rect style="enable-background:accumulate;color:#000000;" height="5.5357" width="96.071" y="1044.1" x="1.9643"/>
   <g>
    <path style="enable-background:accumulate;color:#000000;" d="m11.647,995.45,6.0711,0,0,50.503-9.5443,0z"/>
    <path style="enable-background:accumulate;color:#000000;" d="m38.148,995.45-6.0711,0,0,50.503,9.5443,0z"/>
    <path style="enable-background:accumulate;color:#000000;" d="m17.608,993.36,0,17.736,4.3794,0,0-10.18,5.8607,0,0,10.18,4.3794,0,0-17.736-14.62,0z"/>
   </g>
   <g transform="translate(48,0)">
    <path style="enable-background:accumulate;color:#000000;" d="m11.647,995.45,6.0711,0,0,50.503-9.5443,0z"/>
    <path style="enable-background:accumulate;color:#000000;" d="m38.148,995.45-6.0711,0,0,50.503,9.5443,0z"/>
    <path style="enable-background:accumulate;color:#000000;" d="m17.608,993.36,0,17.736,4.3794,0,0-10.18,5.8607,0,0,10.18,4.3794,0,0-17.736-14.62,0z"/>
   </g>
  </g>
 </g>
</svg>
