<!-- Created with Inkscape (http://www.inkscape.org/) -->
<svg xmlns:rdf="http://www.w3.org/1999/02/22-rdf-syntax-ns#" xmlns="http://www.w3.org/2000/svg" height="95" width="95" version="1.1" xmlns:cc="http://creativecommons.org/ns#" xmlns:dc="http://purl.org/dc/elements/1.1/">
 <g transform="translate(-6.9400893,-7.5643324)">
  <path fill-rule="nonzero" fill="#333" d="M54.284,8.8768c-18.224-0.2532-35.799,11.459-42.702,28.303-7.2069,16.549-3.4787,37.106,9.155,50.016,12.155,13.084,32.18,17.854,48.947,11.748,17.38-5.903,30.195-22.977,30.886-41.338,1.15-17.85-9.195-35.692-25.189-43.66-6.497-3.338-13.794-5.0803-21.097-5.0692zm-0.3125,4.9062c4.8063,0.27906,12.5,0.43032,15.194,3.6119-0.93146,2.2419-1.5625,4.6925-2.6735,6.8096-3.861,3.3387-7.722,6.6773-11.583,10.016-1.4541-1.0582-2.1817-2.7711-2.4312-4.4782-0.03043-2.2102,1.3027-4.0979,1.7987-6.1248-0.27873-1.8615-0.55745-3.723-0.83618-5.5845-1.2658-0.29454-4.0321,0.12105-3.3102-1.9578,0.56514-1.7426,1.9554-2.6481,3.8414-2.2922zm-4.9062,0.34375c-1.7012,0.90326-3.1817,2.4965-5.0239,2.9587-2.9946,0.39411-0.4485-0.45932,0.46164-1.7463,0.94547-1.1718,3.1961-0.77768,4.5623-1.2124zm-9.625,2.6875c1.7259,0.17564,2.9088,1.851,4.625,2-0.85288,1.5005-2.8658,1.3719-3.9767,0.25321-1.0779-0.43824-0.59804-1.3495-0.64827-2.2532zm-1.7812,0.40625c0.34222,1.8203-4.5074,1.4015-0.57129,0.25633l0.57129-0.25633zm0.1875,3.4062c1.8895,0.21359-0.55046,2.3519-0.73884,3.3768-0.54709,1.3657-2.4384,2.9478-0.36926,3.8925,1.7488-0.44248,2.0034-2.0982,1.921-3.7279-0.16272-1.8285,0.25922-3.1924,2.3121-3.2601-1.8545,2.3696-0.0048,1.1423,1.5114,0.23892,2.1381-1.01,2.1313,1.1259-0.16767,0.76108,1.8855,1.6922,4.1645,3.0562,5.1282,5.5175-0.36915,1.265-1.8897,2.1993-2.0244,3.5926-0.54428,1.6607-2.2552,2.0267-3.4346,0.68784-2.5357-0.80484-0.93862-1.8595,0.5304-2.9065,2.1211-0.8862,0.008-2.5184-1.2162-3.0533-1.6854-1.953-1.7902,0.68353-2.3585,1.9743-2.3565,2.0252-5.1613,3.6305-7.2232,5.9318-0.6843,1.3075-2.7525,2.7031-0.76626,3.8404,1.2517,1.8276,3.8791,1.7448,5.2082,3.5403,0.98529-2.3167,1.7002-4.8158,2.8473-7.0232,1.0827-1.6713,2.7672,0.5129,4.1539,0.7887,1.7218,0.34061,2.3617,1.251,2.8107,2.9707,0.91686,2.2234,1.8337,4.4468,2.7506,6.6701-0.98542,0.82691-4.1275,0.34846-2.1887-0.89891,1.0193-2.1767-1.9337-0.54945-2.9636-0.40179-1.9159,0.38682-3.5645,0.82126-1.0255,2.0016,2.6246,0.6791,1.0311,1.0176-0.68676,2.012-2.0854,1.253-4.3965,2.2572-6.3468,3.659-1.2194,1.9483-2.8513,3.7705-3.8171,5.7964,0.40182,1.6032-0.14805,3.9533-1.6131,1.9303-0.07285-2.1153-2.3713-1.6366-3.8656-2.0951-2.1645-0.8282-3.803,1.3192-4.8365,2.9339-0.61016,1.0929-0.26417,3.8183,1.2537,3.3663,1.2792-0.82726,3.1837-1.6658,3.6458,0.45341,0.9026,1.1928,1.4307,3.0198,2.5501,3.8454,3.45,0.2294,6.9911,0.01023,10.384,0.52286,1.872,0.81339,4.1549,1.0786,5.0941,3.1365,1.1805,1.365,1.9132,3.3788,3.9882,3.4478,2.2375,0.67575,4.6074,1.0843,6.3345,2.7902-1.0016,2.9255-1.6408,6.1079-2.8675,8.874-2.3879,1.734-4.9192,3.3206-6.474,5.9106-1.0112,1.301-2.0224,2.6019-3.0335,3.9029-2.7415-1.2258-7.1404-1.797-8.4608-4.4111-0.14172-2.2653,0.30036-4.6817-1.2157-6.5915-1.2277-2.5651-2.8026-5.052-3.8147-7.6656-0.34325-2.4586,2.0458-4.3397,1.4656-6.8229-0.6741-2.3022-3.4471-2.8569-5.4065-3.8256-2.5072-1.2216-5.3109-2.1108-7.6379-3.5345-1.3296-2.04-2.3431-4.459-3.8639-6.2696-2.4246-2.9842,0.41893-9.5849,1.1076-13.55,1.8682-5.8658,5.0719-11.293,9.2638-15.798,1.6528,1.4168,3.7576-0.07857,5.6462-0.18104,1.1214,0.26297,4.1358-1.8366,3.5446-0.20008-0.91535,1.9619,1.2891-1.4943,1.794-2.1,1.0938-1.2703,1.8518-3.0793,3.1715-4.0502zm-3.0938,0.15625c1.6563,0.55397-0.80744,3.5224-1.5625,1.9566,0.18517-0.74828,1.1069-1.3046,1.5625-1.9566zm-2.4375,0.40625c0.34037,1.7924-0.5143,3.0932-1.8555,4.1938-1.0094,0.9057-2.7393,1.9998-4.0064,1.7031-2.7833-0.81582-0.19665-1.9453,0.55575-3.1145,1.5947-1.5158,3.0914-2.6623,5.3062-2.7824zm48.594,3.2188c2.8282,0.15921,4.9178,3.8621,5.5192,5.1867,1.9735,1.4737,3.2576,3.7413,4.5484,6.0255,5.1005,9.2428,6.4625,20.383,3.7136,30.6-1.09,3.8767-3.0671,8.8891-5.6882,12.585-2.6897,3.7585-6.956,9.1944-10.556,10.256-1.8354-6.145-3.6708-12.29-5.5062-18.435-3.0397-1.2674-6.3289-0.74376-9.5312-0.84375-1.2327-0.91504-3.1233-1.4748-3.9564-2.6056,0.15917-2.2363-0.16516-4.6005,1.2766-6.4972,1.3628-2.8945,3.1312-5.7188,4.2402-8.6572-0.16926-1.4681-0.78294-3.9631,1.2535-4.2193,1.8367-0.29385,2.9864-1.362,1.405-2.9582-0.10803-1.6431,2.317-2.1302,3.315-3.2686,1.5617-1.1501,3.1233-2.3001,4.685-3.4502,0.51281-2.2622-3.1949-2.2474-3.1562-4.4375,2.142-2.7564,4.0493-5.809,6.3349-8.3841,0.70087-0.29904,1.4017-0.59808,2.1026-0.89712zm-11.844,4.75c1.6371,0.68156-0.9187,2.9709-2.1791,2.1486-1.4907-0.37341-0.67978-3.0333,0.99775-1.8918,0.39378-0.0856,0.78755-0.17121,1.1813-0.25681zm-32.312,0.6875c1.7603,0.76837,0.8841,2.8179-1.0105,2.0625-1.142-0.16599,0.91071-1.6107,1.0105-2.0625zm30.156,6.6562c0.86892,1.5099,2.2014,2.8973,2.7938,4.4802,0.40014,1.7524-2.795,1.991-2.546,0.02039-0.48362-1.4031-0.11145-3.0256-0.24784-4.5006zm10,9.9062c-2.0671,0.06274,0.19557,1.8289,1.222,2.4172,0.82663,1.6229-1.308,2.797-1.6859,0.68972-0.48588-1.8874-2.4677-1.7547-3.965-1.3876-1.857,1.3852-3.7141,2.7705-5.5711,4.1558,2.5736,0.02611,5.3273-0.44076,7.7878-0.10499,1.8348,1.5084,3.6587,4.2805,6.3798,3.1725,2.517-0.50168,5.0341-1.0034,7.5511-1.505,0.89577-2.2083-1.3543-2.1719-2.9132-2.6287-1.287,0.0235-3.8666-1.5675-3.8326-1.1294,0.62195,2.7923-1.4055-0.05246-2.2422-0.82684-0.91026-0.95084-1.8205-1.9017-2.7308-2.8525zm-64.344,11z"/>
 </g>
</svg>
