<!-- Created with Inkscape (http://www.inkscape.org/) -->
<svg xmlns:rdf="http://www.w3.org/1999/02/22-rdf-syntax-ns#" xmlns="http://www.w3.org/2000/svg" height="87.375" width="53.465" version="1.1" xmlns:cc="http://creativecommons.org/ns#" xmlns:xlink="http://www.w3.org/1999/xlink" xmlns:dc="http://purl.org/dc/elements/1.1/">
 <defs>
  <linearGradient id="linearGradient8540" y2="372.91" gradientUnits="userSpaceOnUse" x2="500.2" y1="456.83" x1="500.2">
   <stop stop-color="#010203" offset="0"/>
   <stop stop-color="#cfcfcf" offset="1"/>
  </linearGradient>
 </defs>
 <g transform="translate(-473.26813,-371.53125)">
  <path d="m499.19,373.53c-1.355,0.08-2.6462,0.25875-3.8438,0.46875-1.1475,0.2075-2.245,0.48-3.3125,0.84375-6.1225,2.06-10.77,5.9525-13.688,11.031-2.0062,3.49-3.34,7.8388-3.0312,13.156,0.13375,2.4462,0.77875,4.645,1.5312,6.625,0.78375,1.9538,1.6825,3.7138,2.75,5.4062,4.065,6.62,9.5925,12.512,12.719,20.094,1.59,3.8525,2.9888,7.8862,4.1875,12.156,1.1688,4.2188,2.2438,8.6988,2.6875,13.594h0.8125,0.8125c0.4425-4.895,1.5188-9.375,2.6875-13.594,1.2-4.27,2.5962-8.3038,4.1875-12.156,3.1262-7.5812,8.6538-13.474,12.719-20.094,1.0688-1.6925,1.9688-3.4525,2.75-5.4062,0.75375-1.98,1.4012-4.1788,1.5312-6.625,0.31125-5.3175-0.995-9.6662-3-13.156-2.9175-5.0788-7.5738-8.9712-13.719-11.031-1.0675-0.36375-2.165-0.63625-3.3125-0.84375-1.1975-0.21-2.49-0.38875-3.8438-0.46875h-0.8125z" fill-rule="evenodd" stroke="#ABC" stroke-miterlimit="4" stroke-dasharray="none" stroke-width="1.5" fill="url(#linearGradient8540)"/>
 </g>
</svg>
