<!-- Created with Inkscape (http://www.inkscape.org/) -->
<svg xmlns:rdf="http://www.w3.org/1999/02/22-rdf-syntax-ns#" xmlns="http://www.w3.org/2000/svg" height="12" width="13" version="1.1" xmlns:cc="http://creativecommons.org/ns#" xmlns:dc="http://purl.org/dc/elements/1.1/">
 <g transform="translate(-326.09625,-566.87468)">
  <g fill="#a1a1a1" transform="matrix(0.14058227,0,0,-0.13437248,332.69653,568.07468)">
   <path d="M0,0,11.035-25.949,39.121-28.424,17.857-46.94,24.178-74.42,0-59.912-24.179-74.42l6.322,27.48-21.268,18.516,28.089,2.475,11.036,25.949z" fill-rule="nonzero" fill="#a1a1a1"/>
  </g>
  <g fill="#000" transform="matrix(0.14058227,0,0,-0.13437248,332.49653,567.67468)">
   <path d="M0,0,11.035-25.949,39.121-28.424,17.857-46.94,24.178-74.42,0-59.912-24.179-74.42l6.322,27.48-21.268,18.516,28.089,2.475,11.036,25.949z" fill-rule="nonzero" fill="#000"/>
  </g>
  <g fill="#212121" transform="matrix(0.14058227,0,0,-0.13437248,332.59653,567.87468)">
   <path fill-rule="nonzero" fill="#212121" d="M0,0,11.035-25.949,39.121-28.424,17.857-46.94,24.178-74.42,0-59.912-24.179-74.42l6.322,27.48-21.268,18.516,28.089,2.475,11.036,25.949z"/>
  </g>
 </g>
</svg>
