<!-- Created with Inkscape (http://www.inkscape.org/) -->
<svg xmlns:rdf="http://www.w3.org/1999/02/22-rdf-syntax-ns#" xmlns="http://www.w3.org/2000/svg" height="65.215" width="68.283" version="1.1" xmlns:cc="http://creativecommons.org/ns#" xmlns:dc="http://purl.org/dc/elements/1.1/">
 <g transform="translate(-614.4362,-468.34098)">
  <path stroke-linejoin="round" d="m668.35,531.58c-2.8461-0.50552-5.1789-2.648-7.6807-4.0344-4.0771-2.4717-7.8545-5.5276-12.189-7.5202-4.636,2.1246-8.6932,5.3636-13.081,7.961-2.0581,0.75662-5.5414,4.5863-7.039,2.7137,0.92207-7.2324,3.7507-14.071,5.0296-21.235-1.154-2.7148-4.4211-4.1907-6.5159-6.2803-3.5159-3.02-7.4367-5.675-10.413-9.2535,1.3544-1.9945,5.5239-1.1028,7.9848-1.6302,4.9164-0.41828,9.9357-0.15629,14.779-1.1096,2.5018-4.4438,3.8803-9.449,5.903-14.129,1.2203-1.8219,1.7873-6.9676,4.0997-6.3328,3.5051,6.3931,5.2364,13.588,8.4127,20.136,2.5293,1.518,6.04,0.79172,8.9629,1.251,4.6195,0.37664,9.3521,0.21999,13.864,1.3655,0.0765,2.4097-3.8208,4.1391-5.5016,6.0122-3.7316,3.2282-7.9463,5.9665-11.304,9.5845,0.58801,5.0657,2.4147,9.9252,3.5293,14.9,0.43957,2.4772,1.6141,5.0942,1.1598,7.6012z" stroke="#bababa" stroke-miterlimit="4" stroke-dasharray="none" stroke-width="1.79999995" fill="#ededed"/>
 </g>
</svg>
